<?xml version="1.0" encoding="UTF-8" standalone="no"?>
<svg
   width="900px"
   height="900px"
   viewBox="0 0 900 900"
   version="1.1"
   xml:space="preserve"
   id="SVGRoot"
   inkscape:version="1.3.2 (9e3d6414e7, 2024-01-14, custom)"
   sodipodi:docname="favicon_celtic.svg"
   xmlns:inkscape="http://www.inkscape.org/namespaces/inkscape"
   xmlns:sodipodi="http://sodipodi.sourceforge.net/DTD/sodipodi-0.dtd"
   xmlns="http://www.w3.org/2000/svg"
   xmlns:svg="http://www.w3.org/2000/svg"><defs
   id="defs5" />
<sodipodi:namedview
   pagecolor="#a9a9a9"
   bordercolor="#292929"
   borderopacity="1"
   inkscape:showpageshadow="2"
   inkscape:pageopacity="0.0"
   inkscape:pagecheckerboard="0"
   inkscape:deskcolor="#232323"
   id="namedview1"
   inkscape:zoom="2"
   inkscape:cx="450"
   inkscape:cy="450"
   inkscape:window-width="2560"
   inkscape:window-height="1374"
   inkscape:window-x="0"
   inkscape:window-y="0"
   inkscape:window-maximized="1"
   inkscape:current-layer="SVGRoot" />
<style
   type="text/css"
   id="style1">
g.prefab path {
  vector-effect:non-scaling-stroke;
  -inkscape-stroke:hairline;
  fill: none;
  fill-opacity: 1;
  stroke-opacity: 1;
  stroke: #00349c;
}
</style>

<path
   style="fill:#000080;stroke-width:1.53061;stroke-opacity:0.467863"
   d=""
   id="path6" /><path
   style="fill:#000080;stroke-width:1.53061;stroke-opacity:0.467863"
   d="m 460.71429,450.76531 -2.19963,-2.29592 h 4.8782 4.8782 l -2.19963,2.29592 c -1.2098,1.26275 -2.41515,2.29591 -2.67857,2.29591 -0.26342,0 -1.46878,-1.03316 -2.67857,-2.29591 z"
   id="path7" /><path
   style="fill:#000080;stroke-width:1.53061;stroke-opacity:0.467863"
   d="m 457.27041,454.59184 v -4.94506 l 2.47253,2.47253 2.47252,2.47253 -2.47252,2.47252 -2.47253,2.47253 z"
   id="path8" /><path
   style="fill:#000080;stroke-width:1;stroke-opacity:0.467863"
   d="m 446.75,451.25 -2.71584,-2.75 h 5.71584 5.71584 l -2.71584,2.75 c -1.49371,1.5125 -2.84371,2.75 -3,2.75 -0.15629,0 -1.50629,-1.2375 -3,-2.75 z"
   id="path9" /><path
   style="fill:#000080;stroke-width:1;stroke-opacity:0.467863"
   d="m 446.5,444.77206 c 1.65,-1.49937 3.12019,-2.73646 3.26708,-2.74909 0.14689,-0.0126 1.48921,1.21453 2.98292,2.72703 l 2.71584,2.75 -5.98292,-9e-4 -5.98292,-9.1e-4 z"
   id="path10" /><path
   style="fill:#000080;stroke-width:1;stroke-opacity:0.467863"
   d="m 453.30621,443.81097 -2.6938,-2.73174 2.6938,-3.1013 2.69379,-3.1013 0.14937,3.08128 c 0.0822,1.6947 0.0822,4.31957 0,5.83304 L 456,446.54271 Z"
   id="path11" /><path
   style="fill:#000080;stroke-width:1;stroke-opacity:0.467863"
   d="m 457.25,441.10792 c 0,-3.08436 0.0625,-5.60792 0.13877,-5.60792 0.0763,0 1.29805,1.31701 2.71495,2.92669 l 2.57618,2.9267 -2.71495,2.68122 -2.71495,2.68123 z"
   id="path12" /><path
   style="fill:#000080;stroke-width:1;stroke-opacity:0.467863"
   d="m 460.71539,444.78505 2.68122,-2.71495 2.9267,2.57618 c 1.60968,1.4169 2.92669,2.63863 2.92669,2.71495 0,0.0763 -2.52356,0.13877 -5.60792,0.13877 h -5.60792 z"
   id="path13" /><path
   style="fill:#000080;stroke-width:1;stroke-opacity:0.467863;opacity:1"
   d="m 453.24421,457.74414 -2.72162,-2.75586 2.8637,-2.8637 2.86371,-2.86371 v 5.61956 c 0,3.09077 -0.0639,5.61957 -0.14208,5.61957 -0.0781,0 -1.36681,-1.24014 -2.86371,-2.75586 z"
   id="path14" /><path
   style="opacity:1;fill:#000080;stroke-width:1;stroke-opacity:0.467863"
   d="m 461,450.5 -1.95295,-2 H 463.5 467.95295 L 466,450.5 c -1.07412,1.1 -2.19912,2 -2.5,2 -0.30088,0 -1.42588,-0.9 -2.5,-2 z"
   id="path15" /><path
   style="opacity:1;fill:#000080;stroke-width:1;stroke-opacity:0.467863"
   d="m 457.75,454.64853 v -3.85148 l 2.00122,1.95414 2.00122,1.95414 -1.85269,1.89734 c -1.01898,1.04353 -1.91953,1.89733 -2.00122,1.89733 -0.0817,0 -0.14853,-1.73316 -0.14853,-3.85147 z"
   id="path16" /><path
   style="fill:#a0a0a0;stroke:none;stroke-width:0.5"
   d=""
   id="path17" /><path
   style="fill:#a0a0a0;stroke:none;stroke-width:0.5"
   d=""
   id="path18" /><path
   style="fill:#800000;stroke:none;stroke-width:0.5"
   d="m 456.94088,454.75 c 9.9e-4,-3.3 0.0819,-4.58493 0.17983,-2.85541 0.0979,1.72953 0.0971,4.42953 -0.002,6 -0.0989,1.57048 -0.17902,0.15541 -0.17803,-3.14459 z"
   id="path19" /><path
   style="fill:#800000;stroke:none;stroke-width:0.5"
   d="M 438.5,443.96325 C 427.25077,434.41754 408.793,423.53232 395.10051,418.369 l -4.39948,-1.65901 3.38004,-3.97999 c 1.85902,-2.189 5.52629,-6.18187 8.14948,-8.87305 L 407,398.96389 l 21,21.04362 21,21.04361 -3.25,2.95782 c -1.7875,1.62679 -3.3625,2.95027 -3.5,2.94105 -0.1375,-0.009 -1.825,-1.35325 -3.75,-2.98674 z"
   id="path20" /><path
   style="fill:#a0a0a0;stroke:none;stroke-width:0.5"
   d="m 428.59341,419.09343 -20.90212,-20.90657 4.15435,-4.03798 C 416.71288,389.418 424.62019,382.5 425.16039,382.5 c 0.20663,0 1.23114,2.19375 2.27668,4.875 5.44104,13.9534 14.92777,30.01918 25.00072,42.33876 l 3.24092,3.96376 -2.77542,3.16124 C 451.37682,438.57744 449.9856,440 449.81171,440 c -0.1739,0 -9.72213,-9.40796 -21.2183,-20.90657 z"
   id="path21" /><path
   style="fill:#800000;stroke:none;stroke-width:0.5"
   d="m 453.42979,429.23527 c -6.35289,-7.50589 -13.01151,-17.58623 -18.41565,-27.87908 -3.80034,-7.2382 -9.02987,-19.86918 -8.40537,-20.30166 0.24186,-0.16749 2.67883,-2.01192 5.41549,-4.09873 7.70876,-5.87824 23.548,-16.30021 24.03413,-15.81408 0.10908,0.10908 0.14056,16.158 0.07,35.66427 L 456,432.27193 Z"
   id="path22" /><path
   style="fill:#800000;stroke:none;stroke-width:0.5"
   d="M 428.84205,419.00697 C 417.51642,407.7358 408.25,398.32672 408.25,398.09791 c 0,-0.44996 7.55405,-7.54808 13.31877,-12.5149 l 3.56877,-3.07482 2.60825,6.12091 c 2.64491,6.20694 8.35586,17.52276 10.06754,19.94808 0.51517,0.72996 0.93667,1.47032 0.93667,1.64525 0,0.17493 0.42206,0.9277 0.9379,1.67282 0.51585,0.74511 2.02356,3.04225 3.35048,5.10475 1.32692,2.0625 2.55096,3.8625 2.7201,4 0.16913,0.1375 1.02889,1.31027 1.91057,2.60616 0.88169,1.29588 2.94809,4.04872 4.592,6.11742 1.64392,2.0687 2.98895,3.89065 2.98895,4.04878 0,0.41641 -5.08203,5.72764 -5.48048,5.72764 -0.18448,0 -9.60184,-9.22186 -20.92747,-20.49303 z"
   id="path23" /><path
   style="opacity:1;fill:#800000;stroke-width:1;stroke-opacity:0.467863"
   d="m 457.27132,396.37157 -0.0213,-35.37842 4.125,2.56323 c 7.1065,4.41592 11.91473,7.6928 18.3735,12.52181 3.43668,2.5695 6.4368,4.80925 6.66694,4.97724 1.17023,0.85418 -8.5144,21.51716 -14.62072,31.19457 -3.67145,5.81856 -9.61508,14.02488 -12.49377,17.25 l -2.00831,2.25 z"
   id="path24" /><path
   style="opacity:1;fill:#800000;stroke-width:1;stroke-opacity:0.467863"
   d="m 460.35971,437.12374 -3.06031,-3.45186 2.05317,-2.46094 c 10.48667,-12.5694 20.11616,-28.58398 25.9039,-43.08018 1.23394,-3.09058 2.37999,-5.62183 2.54677,-5.625 0.48738,-0.009 8.8213,7.24223 13.50071,11.74721 l 4.30396,4.14351 -21.09395,21.08956 -21.09394,21.08957 z"
   id="path25" /><path
   style="opacity:1;fill:#800000;stroke-width:1;stroke-opacity:0.467863"
   d="m 467.33504,444.15341 -3.16497,-2.8191 21.09437,-21.09876 21.09437,-21.09875 3.88364,4.0566 c 2.136,2.23113 5.71876,6.179 7.96169,8.77304 l 4.07805,4.71643 -5.1411,2.06723 c -15.05062,6.05184 -28.55803,13.91259 -40.90504,23.80501 -3.05129,2.44469 -5.59015,4.4387 -5.64192,4.43114 -0.0518,-0.008 -1.51836,-1.28234 -3.25909,-2.83284 z"
   id="path26" /><path
   style="opacity:1;fill:#800000;stroke-width:1;stroke-opacity:0.467863"
   d="m 473.75,445.93246 c 10.93102,-9.5375 28.27316,-19.97073 43.11587,-25.93899 l 6.0125,-2.41763 1.09552,1.33708 c 5.31236,6.48372 19.27611,26.9917 19.27611,28.31003 0,0.15238 -16.03125,0.26791 -35.625,0.25673 L 472,447.45936 Z"
   id="path27" /><path
   style="opacity:1;fill:#aa0000;stroke-width:1;stroke-opacity:0.467863"
   d="m 369.75,447.21612 c 0,-1.19379 12.00492,-18.97215 18.10583,-26.81335 l 2.21532,-2.84723 6.02767,2.42373 c 15.05792,6.0548 31.78363,16.11879 43.15118,25.96439 l 1.75,1.5157 -35.625,0.0203 c -19.59375,0.0112 -35.625,-0.10743 -35.625,-0.26356 z"
   id="path28" /><path
   style="opacity:1;fill:#aa0000;stroke-width:1;stroke-opacity:0.467863"
   d="m 387.65338,475.125 c -5.25963,-6.73818 -14.83381,-20.82372 -17.35013,-25.52551 l -0.58843,-1.09949 35.39259,0.0208 35.39259,0.0208 -2,1.78447 c -9.83859,8.77836 -27.86004,19.62408 -42.18369,25.3871 -3.12602,1.25774 -5.84908,2.2868 -6.05124,2.2868 -0.20215,0 -1.37742,-1.29375 -2.61169,-2.875 z"
   id="path29" /><path
   style="opacity:1;fill:#aa0000;stroke-width:1;stroke-opacity:0.467863"
   d="m 401.69111,491.4129 c -2.87739,-3.1146 -6.54144,-7.17905 -8.14234,-9.03211 -2.53905,-2.93899 -2.79185,-3.41187 -1.97975,-3.70325 15.89481,-5.70312 33.84612,-15.95394 46.60131,-26.61096 2.01868,-1.68662 3.93823,-3.06658 4.26565,-3.06658 0.32743,0 1.93458,1.35337 3.57143,3.0075 l 2.97612,3.00749 -21.0304,21.0304 -21.03041,21.03041 z"
   id="path30" /><path
   style="opacity:1;fill:#aa0000;stroke-width:1;stroke-opacity:0.467863"
   d="m 420,509.06758 c -2.75,-2.42171 -6.64396,-5.95886 -8.65324,-7.86034 l -3.65323,-3.45724 21.02685,-20.99638 21.02685,-20.99639 3.05603,3.05603 3.05603,3.05604 -3.56315,4.359 c -10.34644,12.65735 -20.25432,29.60846 -25.36211,43.39128 -0.78872,2.12827 -1.54653,3.86543 -1.68403,3.86035 -0.1375,-0.005 -2.5,-1.99063 -5.25,-4.41235 z"
   id="path31" /><path
   style="opacity:1;fill:#aa0000;stroke-width:1;stroke-opacity:0.467863"
   d="m 453.5,533.38485 c -9.23466,-5.70912 -27.25,-18.34328 -27.25,-19.11041 0,-0.76671 4.98731,-12.29379 7.48703,-17.30464 5.44462,-10.91408 14.26399,-24.38286 20.93386,-31.9698 l 1.53847,-1.75 0.0203,35.875 c 0.0112,19.73125 -0.0359,35.85934 -0.10468,35.84021 -0.0688,-0.0191 -1.25,-0.7303 -2.625,-1.58036 z"
   id="path32" /><path
   style="opacity:1;fill:#aa0000;stroke-width:1;stroke-opacity:0.467863"
   d="m 457.26345,499.17251 0.0135,-35.42251 1.48898,1.75 c 10.46445,12.29885 20.417,29.1651 26.55393,45 l 1.45334,3.75 -1.38657,1.15462 c -4.93958,4.11327 -19.40772,14.11543 -25.76158,17.80958 l -2.375,1.38082 z"
   id="path33" /><path
   style="opacity:1;fill:#800000;stroke-width:1;stroke-opacity:0.467863"
   d="M 485.81402,508.98912 C 480.69319,495.31746 471.02803,478.85841 460.7037,466.2281 l -3.56333,-4.35921 3.18325,-3.18325 3.18324,-3.18324 20.99657,21.03014 20.99657,21.03014 -3.98064,3.78261 c -4.10988,3.90543 -13.50695,12.1584 -13.83422,12.1499 -0.10183,-0.003 -0.94383,-2.03038 -1.87112,-4.50607 z"
   id="path34" /><path
   style="opacity:1;fill:#aa0000;stroke-width:1;stroke-opacity:0.467863"
   d="m 487.61232,512.65757 c -0.13033,-0.22417 -1.08296,-2.54507 -2.11696,-5.15757 -5.22453,-13.20023 -13.4392,-27.16563 -23.63221,-40.17606 l -4.25104,-5.42605 2.94758,-2.94758 2.94757,-2.94757 20.72576,20.73028 20.72577,20.73028 -1.22939,1.32074 c -1.05556,1.13398 -12.65236,11.60838 -15.05476,13.59767 -0.45395,0.37589 -0.93199,0.50003 -1.06232,0.27586 z"
   id="path35" /><path
   style="opacity:1;fill:#aa0000;stroke-width:1;stroke-opacity:0.467863"
   d="m 485.11601,475.61603 -20.87952,-20.88396 2.89625,-2.86603 C 468.72568,450.28972 470.28332,449 470.59417,449 c 0.31084,0 2.21512,1.37853 4.23172,3.06341 12.76488,10.66506 28.11547,19.44177 46.32477,26.48621 1.11855,0.43272 1.06428,0.5464 -1.94376,4.07276 -4.47476,5.2458 -12.48339,13.87762 -12.8757,13.87762 -0.18462,0 -9.73145,-9.39778 -21.21519,-20.88397 z"
   id="path36" /><path
   style="opacity:1;fill:#800000;stroke-width:1;stroke-opacity:0.467863"
   d="m 516.25,475.46738 c -7.37284,-2.97292 -17.20545,-8.00575 -24.41794,-12.49833 -5.49747,-3.42432 -16.69615,-11.63558 -18.28455,-13.40688 L 472.59501,448.5 h 35.357 c 19.44635,0 35.25799,0.16875 35.13696,0.375 -5.95789,10.1534 -19.22424,29.14646 -20.33897,29.11876 -0.1375,-0.003 -3.0625,-1.14029 -6.5,-2.52638 z"
   id="path37" /><path
   style="opacity:1;fill:#d4aa00;stroke-width:1;stroke-opacity:0.467863"
   d="m 513.45859,503.9585 -6.43691,-6.45123 3.03745,-3.12864 c 2.83113,-2.91612 8.6061,-9.41406 11.84486,-13.32771 l 1.40399,-1.69655 5.84601,1.81337 c 9.72431,3.01638 21.06046,5.37956 29.45462,6.14022 4.46258,0.40439 4.54215,1.16406 0.21372,2.04013 -11.50166,2.3279 -25.66533,9.49588 -35.20743,17.81784 l -3.7194,3.2438 z"
   id="path38" /><path
   style="opacity:1;fill:#d4aa00;stroke-width:1;stroke-opacity:0.467863"
   d="m 386,415.1667 c -7.5052,-2.60398 -22.62621,-5.83562 -32.375,-6.91912 -1.58125,-0.17575 -2.875,-0.48721 -2.875,-0.69214 0,-0.20493 1.74375,-0.78112 3.875,-1.28043 12.80117,-2.99904 26.00131,-9.75444 34.78184,-17.8002 1.78556,-1.63615 3.44036,-2.97481 3.67732,-2.97481 0.23697,0 3.21468,2.79054 6.61715,6.20119 l 6.18629,6.20119 -1.02311,1.42381 c -0.56271,0.78309 -1.74778,2.09881 -2.63349,2.92381 -0.8857,0.825 -3.97466,4.2 -6.86436,7.5 -2.88969,3.3 -5.39183,6.14199 -5.56031,6.31553 C 389.63785,416.23907 387.925,415.8346 386,415.1667 Z"
   id="path39" /><path
   style="opacity:1;fill:#d4aa00;stroke-width:1;stroke-opacity:0.467863"
   d="m 424.04025,374.48853 c -2.21372,-6.99102 -4.10336,-15.40618 -5.32698,-23.72278 -1.33977,-9.10604 -1.54398,-8.44167 2.16173,-7.03309 9.32845,3.54584 27.80732,12.14659 32.7973,15.26507 l 1.67229,1.04509 -3.92229,2.3829 c -6.04467,3.6723 -14.27476,9.28239 -19.99724,13.63123 -2.85368,2.16868 -5.29,3.94305 -5.41404,3.94305 -0.12405,0 -1.01089,-2.48016 -1.97077,-5.51147 z"
   id="path40" /><path
   style="opacity:1;fill:#d4aa00;stroke-width:1;stroke-opacity:0.467863"
   d="m 488.5,550.56623 c -8.76477,-3.52282 -15.68335,-6.68582 -22.75,-10.40071 -8.98174,-4.72163 -8.56799,-4.17675 -4.8802,-6.42687 7.52236,-4.58983 17.5393,-11.5411 25.72264,-17.85029 0.68241,-0.52612 2.32839,4.27614 4.69538,13.69912 2.31664,9.22249 4.52346,23.42463 3.63627,23.40143 -0.23325,-0.006 -3.12409,-1.09631 -6.42409,-2.42268 z"
   id="path41" /><path
   style="opacity:1;fill:#d4aa00;stroke-width:1;stroke-opacity:0.467863"
   d="m 389,506.95654 c -9.55823,-8.30631 -20.01356,-13.7626 -32.48292,-16.95176 -3.01561,-0.77127 -5.54701,-1.59456 -5.62533,-1.82953 -0.0783,-0.23497 3.06399,-0.82261 6.98292,-1.30587 8.01421,-0.98826 15.77492,-2.6374 24.62533,-5.23284 3.3,-0.96774 6.3375,-1.83629 6.75,-1.9301 0.44596,-0.10142 2.03674,1.39301 3.92415,3.6865 1.74578,2.12138 5.38564,6.23916 8.08858,9.15061 l 4.91443,5.29356 -6.34553,6.33144 c -3.49005,3.4823 -6.45491,6.31629 -6.58858,6.29776 C 393.10937,510.44778 391.2,508.86839 389,506.95654 Z"
   id="path42" /><path
   style="opacity:1;fill:#d4aa00;stroke-width:1;stroke-opacity:0.467863"
   d="m 519.25998,411.57781 c -2.25929,-2.6553 -5.91658,-6.70846 -8.12731,-9.00703 l -4.01951,-4.17923 6.52754,-6.52753 6.52753,-6.52754 3.41589,3.13606 c 8.73,8.01486 22.00263,14.80645 34.79088,17.80247 2.13125,0.49931 3.875,1.0755 3.875,1.28043 0,0.20493 -1.29375,0.51998 -2.875,0.70011 -10.00452,1.13966 -25.61707,4.50913 -33.19111,7.16324 l -2.81611,0.98683 z"
   id="path43" /><path
   style="opacity:1;fill:#d4aa00;stroke-width:1;stroke-opacity:0.467863"
   d="m 483,377.14777 c -4.68641,-3.72511 -15.24646,-10.97958 -21.13695,-14.52051 -3.1297,-1.88135 -3.98088,-2.61449 -3.49935,-3.01408 2.61337,-2.16865 24.88811,-12.62817 33.7613,-15.85324 3.69878,-1.34437 3.48989,-2.02133 2.16173,7.00581 -1.15053,7.81982 -3.1061,16.7281 -5.03433,22.93296 -2.32135,7.46996 -1.65578,7.1028 -6.2524,3.44906 z"
   id="path44" /><path
   style="opacity:1;fill:#d4aa00;stroke-width:1;stroke-opacity:0.467863"
   d="m 417.75327,552.125 c 0.0181,-4.82286 3.61517,-22.32696 6.52989,-31.77536 l 1.51171,-4.90036 1.35256,1.0394 c 6.3592,4.88684 15.52,11.30858 21.21116,14.86906 3.77223,2.35997 6.7601,4.45022 6.63971,4.64501 C 454.16614,537.34921 420.12603,553 418.02967,553 c -0.15382,0 -0.2782,-0.39375 -0.2764,-0.875 z"
   id="path45" /><path
   style="opacity:1;fill:#88aa00;stroke-width:1;stroke-opacity:0.467863"
   d="m 457.27132,604.375 c -0.0117,-37.05625 0.072,-67.375 0.18597,-67.375 0.114,0 2.53275,1.25001 5.375,2.77779 7.55508,4.06107 18.75987,9.2432 26.01596,12.03217 4.72351,1.81555 6.41734,2.69598 6.61818,3.44004 0.59194,2.19306 0.25827,23.72569 -0.46493,30.00306 -3.2857,28.51965 -13.28314,54.15566 -30.02698,76.99694 -2.01589,2.75 -4.569,6.0125 -5.67357,7.25 l -2.00831,2.25 z"
   id="path46" /><path
   style="opacity:1;fill:#88aa00;stroke-width:1;stroke-opacity:0.467863"
   d="M 453.42979,669.31569 C 436.64706,648.96188 424.78995,623.63075 419.81398,597.5 c -1.82339,-9.5753 -2.61505,-18.71389 -2.60644,-30.08767 0.005,-5.96846 0.14296,-11.38867 0.30766,-12.0449 0.22202,-0.88456 0.96999,-1.4309 2.89213,-2.11248 7.87933,-2.79394 22.22389,-9.33249 31.21767,-14.22967 l 4.625,-2.51835 v 67.99653 c 0,37.3981 -0.0562,67.98142 -0.125,67.96294 -0.0688,-0.0185 -1.28159,-1.43631 -2.69521,-3.15071 z"
   id="path47" /><path
   style="opacity:1;fill:#88aa00;stroke-width:1;stroke-opacity:0.467863"
   d="m 457.26345,291.3398 0.0135,-67.5898 1.48898,1.75 c 20.06843,23.58641 33.33903,55.21535 36.47249,86.92797 0.75424,7.63331 0.67489,27.68093 -0.11337,28.64641 -0.34375,0.42104 -1.75,1.16614 -3.125,1.65579 -7.70072,2.74227 -21.24686,8.90279 -30.125,13.70023 l -4.625,2.49921 z"
   id="path48" /><path
   style="opacity:1;fill:#88aa00;stroke-width:1;stroke-opacity:0.467863"
   d="M 451,356.40539 C 442.96553,351.9038 420.81737,342 418.7848,342 c -1.28268,0 -1.57104,-2.41325 -1.56842,-13.12608 10e-4,-6.11816 0.24344,-13.48642 0.53765,-16.37392 2.98464,-29.29188 13.71411,-56.95297 31.00611,-79.9352 2.4063,-3.19814 5.06677,-6.6023 5.91216,-7.5648 l 1.53706,-1.75 0.0203,67.875 c 0.0112,37.33125 -0.14843,67.8585 -0.35468,67.83834 -0.20625,-0.0202 -2.4,-1.17124 -4.875,-2.55795 z"
   id="path49" /><path
   style="opacity:1;fill:#88aa00;stroke-width:1;stroke-opacity:0.467863"
   d="m 352.30022,483.69605 c 3.18635,-8.6172 9.23973,-21.72975 14.59758,-31.62057 l 1.71963,-3.17452 1.91029,3.17452 c 3.11537,5.17714 10.34244,15.81174 14.38979,21.17452 2.07545,2.75 3.61806,5.1409 3.42802,5.31312 -0.55069,0.49904 -6.35353,2.28615 -12.68456,3.90649 -6.21257,1.59002 -15.46625,3.27469 -21.05554,3.83326 l -3.39456,0.33923 z"
   id="path50" /><path
   style="opacity:1;fill:#88aa00;stroke-width:1;stroke-opacity:0.467863"
   d="m 327.75,487.15337 c -11.29161,-0.66373 -26.49447,-3.31352 -36.77279,-6.40934 -19.92485,-6.00135 -42.68543,-18.23059 -56.22721,-30.21084 l -2.25,-1.99055 67.55887,-0.0213 67.55888,-0.0213 -3.63469,6.79838 c -3.94475,7.3783 -8.98544,18.49393 -12.01988,26.50598 l -1.91426,5.05436 -5.52446,0.31836 c -5.39119,0.31069 -11.22582,0.30244 -16.77446,-0.0237 z"
   id="path51" /><path
   style="opacity:1;fill:#88aa00;stroke-width:1;stroke-opacity:0.467863"
   d="m 542.57528,443.96236 c -2.3305,-4.14933 -9.85817,-15.32078 -14.25492,-21.15505 -2.25591,-2.99347 -4.03836,-5.49963 -3.96101,-5.56924 0.4363,-0.39261 10.89803,-3.49534 15.27641,-4.53067 4.54498,-1.07473 12.74266,-2.50721 19.72196,-3.44626 l 2.35772,-0.31723 -0.91595,2.65305 c -1.29927,3.76335 -4.21979,10.74201 -7.17842,17.15304 -2.8738,6.22719 -8.94535,17.75026 -9.35228,17.74949 -0.14784,-2.8e-4 -0.90991,-1.14199 -1.69351,-2.53713 z"
   id="path52" /><path
   style="opacity:1;fill:#88aa00;stroke-width:1;stroke-opacity:0.467863"
   d="m 550.96207,436.375 c 3.07673,-6.11875 7.03357,-14.75926 8.79299,-19.20113 l 3.19894,-8.07613 1.773,-0.29337 c 3.49333,-0.57802 21.18884,-0.28994 28.34368,0.46142 31.9281,3.35293 61.66333,16.05973 86.42932,36.93396 l 1.5,1.26429 -67.81598,0.018 -67.81599,0.018 z"
   id="path53" /><path
   style="opacity:1;fill:#88aa00;stroke-width:1;stroke-opacity:0.467863"
   d="m 349.77698,404.82096 c -0.24655,-0.64846 -1.24233,-3.74221 -2.21285,-6.875 -5.91504,-19.09334 -9.55088,-40.41311 -10.13782,-59.44596 l -0.28526,-9.25 27.58278,27.5 27.58278,27.5 -3.35914,3.14715 c -8.26025,7.73897 -21.66207,14.80512 -33.44747,17.63528 -5.05388,1.21365 -5.18301,1.20887 -5.72302,-0.21147 z"
   id="path54" /><path
   style="opacity:1;fill:#88aa00;stroke-width:1;stroke-opacity:0.467863"
   d="M 365.5017,356.0283 338.00341,328.5 h 4.52335 c 9.8773,0 27.80843,1.93925 39.58416,4.28103 13.37226,2.65927 32.63908,8.14143 32.63908,9.28708 0,1.11257 -2.08407,8.59046 -3.55949,12.7719 -3.1542,8.93916 -9.22114,19.1453 -15.12705,25.44755 L 393,383.55661 Z"
   id="path55" /><path
   style="opacity:1;fill:#88aa00;stroke-width:1;stroke-opacity:0.467863"
   d="m 562.54655,566.95434 c -18.44529,-1.05427 -37.80203,-4.56931 -56.70181,-10.29663 l -7.65525,-2.31981 0.34114,-2.04395 c 0.59606,-3.57137 3.13464,-11.54857 5.16422,-16.22801 3.32494,-7.66603 8.24833,-15.27622 13.88895,-21.46842 l 2.4162,-2.65248 27.74831,27.77748 27.74831,27.77748 -2.99831,-0.0741 c -1.64907,-0.0408 -6.12736,-0.25295 -9.95176,-0.47155 z"
   id="path56" /><path
   style="opacity:1;fill:#88aa00;stroke-width:1;stroke-opacity:0.467863"
   d="m 548.08015,538.58016 -27.41644,-27.41984 3.16814,-2.77113 c 9.77059,-8.54617 22.04076,-14.88858 34.65379,-17.91241 2.1921,-0.52553 4.14094,-0.79154 4.33076,-0.59114 0.59305,0.62609 5.34951,17.04936 6.91153,23.86436 1.90682,8.31935 3.77261,19.17157 4.77097,27.75 0.74714,6.41985 1.63401,24.5 1.20178,24.5 -0.11225,0 -12.54149,-12.33893 -27.62053,-27.41984 z"
   id="path57" /><path
   style="opacity:1;fill:#000080;stroke-width:1;stroke-opacity:0.467863"
   d="m 556.5,404.76554 c -12.10797,-3.24319 -24.19692,-9.69632 -32.3403,-17.26338 L 521,384.56608 548.4288,357.15804 575.8576,329.75 l -0.2742,8.5 c -0.63305,19.62395 -4.56637,42.21985 -10.70545,61.5 -1.53975,4.83568 -2.10138,6.02143 -2.89422,6.11045 -0.54105,0.0607 -3.00873,-0.43196 -5.48373,-1.09491 z"
   id="path58" /><path
   style="opacity:1;fill:#000080;stroke-width:1;stroke-opacity:0.467863"
   d="m 516.80386,380.27267 c -8.40342,-9.62325 -14.26901,-20.9072 -17.55215,-33.76597 -0.55094,-2.15782 -1.00171,-4.15519 -1.00171,-4.43859 0,-0.74866 11.25168,-4.29165 21.70648,-6.83506 15.89127,-3.86597 31.27388,-6.02821 46.54352,-6.54234 l 9,-0.30304 -27.74831,27.80617 c -15.26157,15.29339 -27.74907,27.79103 -27.75,27.77253 -9.3e-4,-0.0185 -1.43995,-1.68066 -3.19783,-3.6937 z"
   id="path59" /><path
   style="opacity:1;fill:#000080;stroke-width:1;stroke-opacity:0.467863"
   d="m 576.59359,317.66868 c -0.67481,-20.13337 -4.63031,-42.89234 -10.80648,-62.17774 l -1.92178,-6.00083 1.31734,-0.37006 c 0.72453,-0.20353 5.92983,-0.35978 11.56733,-0.34722 8.63635,0.0192 11.04878,0.19619 15.32388,1.12405 9.96356,2.16246 20.25828,6.449 28.17612,11.73204 3.99202,2.66361 12,9.18532 12,9.77282 0,0.1934 -12.45167,12.80179 -27.67036,28.01863 l -27.67036,27.66699 z"
   id="path61" /><path
   style="opacity:1;fill:#000080;stroke-width:1;stroke-opacity:0.467863"
   d="m 646.5,337.86941 c -19.4767,-5.96008 -39.74987,-9.41147 -59.91798,-10.20066 l -8.41798,-0.3294 27.41627,-27.41967 C 620.65927,284.83885 633.14249,272.5 633.32082,272.5 c 0.17832,0 1.70795,1.63125 3.39919,3.625 8.70055,10.25684 14.63957,22.28223 17.65388,35.74574 0.94393,4.21611 1.09469,6.42187 1.10926,16.22926 0.0103,6.96592 -0.17628,11.51754 -0.48315,11.78375 -0.29335,0.25448 -3.80647,-0.57807 -8.5,-2.01434 z"
   id="path62" /><path
   style="opacity:1;fill:#000080;stroke-width:1;stroke-opacity:0.467863"
   d="m 337.25791,560.99943 c 0.0205,-14.86808 2.87979,-35.46278 7.28891,-52.49943 2.03936,-7.87998 5.1357,-18.08336 5.65359,-18.63025 0.55529,-0.58638 10.07652,1.9834 15.73066,4.24572 8.69542,3.47918 17.51695,8.98487 24.06893,15.02187 l 2.5,2.3035 -27.625,27.65402 -27.625,27.65401 z"
   id="path64" /><path
   style="opacity:1;fill:#000080;stroke-width:1;stroke-opacity:0.467863"
   d="M 365.65545,539.90547 393.3109,512.25 l 2.04532,2.25 c 3.02248,3.32495 7.64031,9.64152 9.99067,13.6659 3.84252,6.5793 8.05164,17.71201 9.12249,24.12805 l 0.34113,2.04395 -7.65526,2.30843 c -21.61884,6.51915 -39.10026,9.47772 -62.65525,10.60385 l -6.5,0.31076 z"
   id="path65" /><path
   style="opacity:1;fill:#000080;stroke-width:1;stroke-opacity:0.467863"
   d="m 331,647.21461 c -0.825,-0.11353 -3.525,-0.45777 -6,-0.76498 -13.70404,-1.70101 -30.64172,-9.54779 -40.75,-18.87838 l -3.25,-2.99997 27.5,-27.5397 27.5,-27.5397 0.3242,8.40764 c 0.77303,20.04746 4.12991,39.94002 10.06954,59.67129 l 2.65529,8.82081 -2.27451,0.31637 c -3.01236,0.41902 -13.87586,0.76791 -15.77452,0.50662 z"
   id="path67" /><path
   style="opacity:1;fill:#000080;stroke-width:1;stroke-opacity:0.467863"
   d="m 277.17886,620.58758 c -8.73302,-9.49442 -15.38522,-22.66388 -18.5207,-36.66572 -1.0247,-4.5759 -1.15816,-6.47784 -1.15816,-16.50537 0,-6.23343 0.1689,-11.50234 0.37534,-11.70868 0.20644,-0.20634 3.35644,0.55766 7,1.69779 20.48666,6.41057 38.94104,9.5217 64.56928,10.88543 l 5.94463,0.31632 -27.44292,27.44632 C 292.85272,611.14915 280.35813,623.5 280.18056,623.5 c -0.17757,0 -1.52833,-1.31059 -3.0017,-2.91242 z"
   id="path68" /><path
   style="opacity:1;fill:#000080;stroke-width:1;stroke-opacity:0.467863"
   d="m 571.5,647.20866 c -0.55,-0.0853 -2.48349,-0.29384 -4.29665,-0.46332 l -3.29664,-0.30815 1.95662,-6.34359 c 6.70107,-21.72558 10.86467,-46.82305 10.88151,-65.59191 l 0.005,-5.74831 27.73911,27.73574 27.73912,27.73574 -1.61412,1.6867 c -3.1349,3.27589 -12.06818,9.55156 -17.80546,12.50842 -6.32402,3.25926 -14.02981,6.02062 -20.30865,7.27758 -7.07686,1.41673 -17.0043,2.13108 -21,1.5111 z"
   id="path71" /><path
   style="opacity:1;fill:#000080;stroke-width:1;stroke-opacity:0.467863"
   d="m 605.54035,596.04036 -27.43113,-27.43453 5.44539,-0.30951 c 26.23561,-1.4912 43.04466,-4.29464 63.44539,-10.58152 8.89006,-2.73965 8.04413,-2.82146 8.4242,0.81475 0.65272,6.24492 0.35284,16.7129 -0.64618,22.55656 -1.65151,9.66028 -5.51794,20.02069 -10.51056,28.16389 -2.41843,3.94456 -7.67484,10.80673 -9.85262,12.86244 l -1.44335,1.36246 z"
   id="path72" /><path
   style="opacity:1;fill:#000080;stroke-width:1;stroke-opacity:0.467863"
   d="m 308.31378,298.81611 -27.68622,-27.69191 4.68622,-3.90181 c 10.55197,-8.78573 22.06244,-14.38361 35.63419,-17.32996 4.25061,-0.92279 6.67801,-1.10039 15.30203,-1.1196 5.6375,-0.0126 10.8428,0.14369 11.56734,0.34722 l 1.31732,0.37006 -1.97498,6.12994 c -6.07937,18.86912 -10.05418,41.71364 -10.8327,62.25896 L 336,326.50802 Z"
   id="path75" /><path
   style="opacity:1;fill:#000080;stroke-width:1;stroke-opacity:0.467863"
   d="m 257.4807,336.18943 c -0.56913,-6.83229 0.0476,-19.27609 1.21797,-24.57464 2.9384,-13.30306 8.99787,-25.47642 17.81915,-35.79836 l 3.36168,-3.93357 27.69002,27.68357 27.69,27.68357 -3.62975,0.11093 c -14.31161,0.43739 -29.76401,2.20287 -43.32527,4.95003 -7.94709,1.60988 -22.61713,5.49276 -27.99236,7.40905 -1.20333,0.429 -2.25188,0.77999 -2.33012,0.77999 -0.0782,0 -0.30383,-1.93976 -0.50132,-4.31057 z"
   id="path76" /><path
   style="opacity:1;fill:#88aa00;stroke-width:1;stroke-opacity:0.467863"
   d="m 257.9579,338.76026 c -0.18369,-0.73187 -0.22096,-6.43357 -0.0828,-12.67046 0.23714,-10.70708 0.33921,-11.67302 1.82936,-17.31186 3.30678,-12.51317 9.82499,-24.77094 17.93346,-33.72461 L 280,272.44501 l 27.19461,27.22382 27.19461,27.22382 -5.94461,0.32558 c -16.02279,0.87755 -30.51383,2.74409 -43.3541,5.58427 -6.76312,1.49595 -23.27047,5.92293 -25.94457,6.95788 -0.63915,0.24736 -0.93811,-0.004 -1.18804,-1.00012 z"
   id="path78" /><path
   style="opacity:1;fill:#88aa00;stroke-width:1;stroke-opacity:0.467863"
   d="m 258.25,328.56549 c 0,-7.3929 0.23828,-12.29177 0.73568,-15.125 1.39352,-7.93765 5.83918,-19.18548 10.74693,-27.19049 2.25247,-3.67399 7.71574,-10.89505 9.3491,-12.35713 0.92428,-0.82736 1.88511,0.0706 27.66332,25.85216 17.19811,17.20037 26.44753,26.79215 25.98038,26.94202 -0.39898,0.12801 -3.65041,0.37074 -7.22541,0.53942 -19.27021,0.90923 -37.92506,4.15535 -60.62256,10.54889 -3.36741,0.94856 -6.23616,1.72464 -6.375,1.72464 -0.13884,0 -0.25244,-4.92053 -0.25244,-10.93451 z"
   id="path79" /><path
   style="opacity:1;fill:#000080;stroke-width:1;stroke-opacity:0.467863"
   d="m 258.25,328.56549 c 0,-12.4352 0.53994,-16.55825 3.19946,-24.43118 3.72541,-11.02831 9.67036,-21.41915 16.7598,-29.2935 l 1.71888,-1.90919 26.63209,26.6286 c 14.64765,14.64573 26.51929,26.81111 26.38142,27.03419 -0.13787,0.22307 -1.64364,0.40687 -3.34616,0.40843 -4.59146,0.004 -19.63946,1.38839 -27.34549,2.51532 -11.65836,1.70493 -24.65837,4.59816 -38,8.45712 -2.8875,0.83519 -5.41875,1.51991 -5.625,1.52162 -0.20625,0.002 -0.375,-4.91743 -0.375,-10.93141 z"
   id="path80" /><path
   style="opacity:1;fill:#800000;stroke-width:1;stroke-opacity:0.467863"
   d="m 567.75,646.68097 c -1.2375,-0.11716 -2.50993,-0.30306 -2.82762,-0.41312 -0.39365,-0.13637 0.122,-2.55978 1.61903,-7.60898 6.13903,-20.70577 9.61332,-40.99617 10.07492,-58.83909 l 0.26983,-10.43022 27.41937,27.41596 27.41937,27.41597 -1.36246,1.45705 c -1.85955,1.98868 -9.54727,7.66278 -14.11244,10.41603 -6.865,4.14027 -15.83665,7.60617 -24.3971,9.42502 -4.79854,1.01955 -18.58466,1.68382 -24.1029,1.16138 z"
   id="path84" /><path
   style="opacity:1;fill:#800000;stroke-width:1;stroke-opacity:0.467863"
   d="m 606.0103,596.01031 c -17.14164,-17.14386 -26.69694,-27.04524 -26.23572,-27.18597 0.39898,-0.12174 5.00042,-0.48152 10.22542,-0.79951 20.72048,-1.26105 35.18518,-3.77005 55.38383,-9.60673 4.88611,-1.4119 9.04786,-2.40307 9.24834,-2.20259 0.68533,0.68533 1.0168,10.02702 0.59557,16.78449 -0.70681,11.33876 -3.02865,19.88836 -8.25693,30.40428 -3.02553,6.08537 -9.18896,15.02142 -12.55867,18.20818 l -1.44069,1.36246 z"
   id="path85" /><path
   style="opacity:1;fill:#800000;stroke-width:1;stroke-opacity:0.467863"
   d="m 647.75,337.95237 c -18.98641,-5.80191 -39.37724,-9.35761 -59.64912,-10.40145 -4.61951,-0.23787 -8.49178,-0.52516 -8.60503,-0.63841 -0.11326,-0.11325 11.92429,-12.33455 26.75009,-27.15845 l 26.95601,-26.95254 1.08404,0.97424 c 0.59622,0.53583 2.83176,3.29876 4.96787,6.13984 6.76933,9.00343 11.1295,17.99347 14.10593,29.0844 1.45265,5.41291 1.55646,6.40219 1.77091,16.87482 0.12529,6.11865 0.0866,11.6874 -0.086,12.375 -0.40057,1.59602 -1.20593,1.56318 -7.29472,-0.29745 z"
   id="path86" /><path
   style="opacity:1;fill:#800000;stroke-width:1;stroke-opacity:0.467863"
   d="m 577.08046,322.44872 c -0.14777,-2.0343 -0.5123,-7.66205 -0.81005,-12.50612 -0.99519,-16.19016 -4.24037,-34.11912 -9.24721,-51.08902 -1.47727,-5.00697 -2.57479,-9.21608 -2.43894,-9.35358 0.13586,-0.1375 4.70211,-0.32282 10.14722,-0.41182 10.80283,-0.17657 15.13097,0.31995 23.26852,2.66936 5.83123,1.68354 13.80044,5.11135 18.85897,8.11185 4.01904,2.3839 14.44936,10.4389 14.73829,11.3819 0.0845,0.27571 -12.08679,12.74013 -27.04726,27.69872 l -27.20086,27.19742 z"
   id="path87" /><path
   style="opacity:1;fill:#800000;stroke-width:1;stroke-opacity:0.467863"
   d="m 308.3139,298.3179 -27.18609,-27.19352 3.68609,-3.0852 c 10.73437,-8.98448 22.10831,-14.59883 36.1861,-17.862 3.28356,-0.76111 6.07461,-0.92718 15.58297,-0.92718 6.37064,0 11.70357,0.12043 11.85095,0.26761 0.14738,0.14719 -0.40688,2.39719 -1.2317,5 -5.35208,16.88921 -9.17372,36.71476 -10.45403,54.23239 -0.32158,4.4 -0.73398,9.97132 -0.91644,12.38071 l -0.33175,4.3807 z"
   id="path88" /><path
   style="opacity:1;fill:#800000;stroke-width:1;stroke-opacity:0.467863"
   d="m 258.70934,333.875 c -0.0842,-10.6073 0.10583,-17.22476 0.58274,-20.29783 1.70068,-10.95867 10.39583,-28.78434 18.28988,-37.4955 L 280,273.41334 l 26.19676,26.3049 c 14.40822,14.4677 26.07109,26.43058 25.91748,26.58418 -0.1536,0.1536 -3.50464,0.48653 -7.44676,0.73984 -19.89496,1.27839 -36.44152,4.09697 -56.91748,9.69547 -4.5375,1.24064 -8.41875,2.25718 -8.625,2.25899 -0.20625,0.002 -0.3933,-2.30297 -0.41566,-5.12172 z"
   id="path89" /><path
   style="opacity:1;fill:#800000;stroke-width:1;stroke-opacity:0.467863"
   d="m 277.02667,619.89791 c -7.72397,-8.53526 -14.12234,-20.81604 -17.58113,-33.74454 -1.20052,-4.4874 -1.33282,-5.95271 -1.55949,-17.27264 -0.2054,-10.25749 -0.12919,-12.41475 0.44638,-12.63561 0.38173,-0.14649 3.82018,0.64779 7.64099,1.76506 20.51037,5.99757 36.41807,8.78042 57.27658,10.01979 5.3625,0.31863 10.07644,0.67751 10.47542,0.79752 0.45956,0.13823 -9.16044,10.10534 -26.24826,27.19535 C 292.64163,610.86028 280.35282,623 280.16869,623 c -0.18413,0 -1.59804,-1.39594 -3.14202,-3.10209 z"
   id="path90" /><path
   style="opacity:1;fill:#aa0000;stroke-width:1;stroke-opacity:0.467863"
   d="m 327.75,646.67666 c -15.69606,-2.09975 -32.85667,-9.77579 -43.25,-19.34599 l -3,-2.76241 26.9783,-27.01416 c 14.83807,-14.85779 27.02573,-26.96673 27.08371,-26.90875 0.058,0.058 0.35956,4.49274 0.67019,9.85503 1.18931,20.53086 4.38683,38.57954 10.43123,58.87985 1.16252,3.90436 1.77668,6.75228 1.49385,6.92708 -0.60114,0.37152 -18.03265,0.68701 -20.40728,0.36935 z"
   id="path91" /><path
   style="opacity:1;fill:#aa0000;stroke-width:1;stroke-opacity:0.467863"
   d="m 576.80879,314.875 c -1.39198,-22.48712 -4.63626,-40.12107 -11.86667,-64.5 -0.24166,-0.81482 0.50259,-0.875 10.82064,-0.875 9.12288,0 11.94975,0.17721 16.0029,1.00319 13.24163,2.69847 26.74514,9.54633 37.73077,19.13392 l 1.99642,1.74236 -26.71545,26.81026 C 590.0839,312.93538 577.92101,325 577.74874,325 c -0.17226,0 -0.59524,-4.55625 -0.93995,-10.125 z"
   id="path92" /><path
   style="opacity:1;fill:#aa0000;stroke-width:1;stroke-opacity:0.467863"
   d="m 648.5,337.9416 c -16.28732,-5.25093 -38.31452,-9.18271 -58.91356,-10.51586 -5.13504,-0.33233 -9.33644,-0.73363 -9.33644,-0.89176 0,-0.15813 11.89893,-12.18486 26.44207,-26.72606 15.80397,-15.80186 26.66832,-26.29871 27.00443,-26.09098 0.97753,0.60414 5.87895,6.98087 8.74249,11.37393 3.81616,5.8545 6.97374,12.53486 9.28997,19.65436 2.67948,8.23606 3.0129,10.81965 3.01726,23.37977 l 0.004,10.875 -1.625,-0.0456 c -0.89375,-0.0251 -2.975,-0.48084 -4.625,-1.01279 z"
   id="path93" /><path
   style="opacity:1;fill:#800000;stroke-width:1;stroke-opacity:0.467863"
   d="m 322.75,645.54202 c -9.36836,-2.01839 -18.2352,-5.40352 -26.29952,-10.04046 -4.78265,-2.75 -10.53506,-6.9656 -12.93355,-9.47824 l -1.48307,-1.55364 26.47453,-26.47808 c 20.51134,-20.51407 26.545,-26.28251 26.78733,-25.60983 0.17204,0.47752 0.46819,3.68073 0.65812,7.11823 1.12169,20.30162 3.81786,35.72581 10.6361,60.8467 0.76083,2.80319 1.20235,5.27818 0.98115,5.5 -0.2212,0.22182 -4.94019,0.45003 -10.48664,0.50714 -8.18363,0.0843 -10.88553,-0.0688 -14.33445,-0.81182 z"
   id="path94" /><path
   style="opacity:1;fill:#aa0000;stroke-width:1;stroke-opacity:0.467863"
   d="m 606.56127,596.02298 c -14.5413,-14.60921 -26.32998,-26.67094 -26.19707,-26.80385 0.13291,-0.13291 4.71784,-0.5725 10.18873,-0.97688 21.80697,-1.61183 32.99018,-3.53223 53.64725,-9.21242 5.0601,-1.39141 9.4718,-2.52983 9.80378,-2.52983 1.86186,0 1.51023,17.83 -0.54964,27.86996 -2.40046,11.7 -10.25042,27.26951 -17.86988,35.44289 L 633,622.58517 Z"
   id="path95" /><path
   style="opacity:1;fill:#aa0000;stroke-width:1;stroke-opacity:0.467863"
   d="m 258.97837,334.69083 c -0.42013,-4.48338 0.091,-18.25069 0.82387,-22.19083 1.93718,-10.41503 10.85835,-28.34995 17.99112,-36.16894 L 280,273.91213 305.65931,299.6983 c 14.11261,14.18239 25.53621,25.98533 25.38577,26.22876 -0.15045,0.24342 -2.58464,0.59807 -5.40931,0.78811 -20.13102,1.35433 -36.723,4.1366 -56.97517,9.55405 -4.58667,1.22693 -8.56123,2.23078 -8.83234,2.23078 -0.27112,0 -0.65357,-1.71413 -0.84989,-3.80917 z"
   id="path96" /><path
   style="opacity:1;fill:none;stroke-width:1;stroke-opacity:0.467863"
   d="m 318.5,566.45267 c -12.10304,-0.98613 -25.78478,-3.21464 -38.25,-6.23019 -8.51693,-2.0604 -20.54911,-5.60766 -21.21806,-6.25539 -0.63612,-0.61593 0.89017,-7.02756 3.08682,-12.96709 8.56737,-23.16532 26.76193,-40.61348 50.5816,-48.50657 8.75669,-2.90169 14.03719,-3.60285 25.66469,-3.40785 5.39202,0.0904 9.92404,0.28525 10.07116,0.43293 0.14711,0.14768 -0.51317,2.73518 -1.46731,5.75 -6.01115,18.9937 -9.67412,40.04087 -10.72125,61.60358 -0.26382,5.43285 -0.48373,9.93416 -0.48867,10.00291 -0.0193,0.26903 -12.53158,-0.0371 -17.25898,-0.42233 z"
   id="path97" /><path
   style="opacity:1;fill:none;stroke-width:1;stroke-opacity:0.467863"
   d="m 318.5,566.45267 c -12.10304,-0.98613 -25.78478,-3.21464 -38.25,-6.23019 -8.51693,-2.0604 -20.54911,-5.60766 -21.21806,-6.25539 -0.63612,-0.61593 0.89017,-7.02756 3.08682,-12.96709 8.56737,-23.16532 26.76193,-40.61348 50.5816,-48.50657 8.75669,-2.90169 14.03719,-3.60285 25.66469,-3.40785 5.39202,0.0904 9.92404,0.28525 10.07116,0.43293 0.14711,0.14768 -0.51317,2.73518 -1.46731,5.75 -6.01115,18.9937 -9.67412,40.04087 -10.72125,61.60358 -0.26382,5.43285 -0.48373,9.93416 -0.48867,10.00291 -0.0193,0.26903 -12.53158,-0.0371 -17.25898,-0.42233 z"
   id="path98" /><path
   style="opacity:1;fill:#aa0000;fill-opacity:1;stroke-width:1;stroke-opacity:0.467863"
   d="m 319.5,644.52831 c -7.56792,-1.96245 -12.00464,-3.63708 -18.86966,-7.12233 -6.13032,-3.11226 -12.48386,-7.36667 -16.14123,-10.80839 l -2.14893,-2.02222 25.07991,-25.01376 c 24.1408,-24.07712 27.82979,-27.61936 27.83001,-26.7229 5e-5,0.22621 0.33723,4.79879 0.74929,10.16129 1.37402,17.88173 3.35795,29.51963 8.5306,50.04112 1.496,5.93511 2.72001,11.27886 2.72001,11.875 0,1.08005 -0.0394,1.0838 -11.125,1.06114 -10.57552,-0.0216 -11.39665,-0.0932 -16.625,-1.44895 z"
   id="path99" /><path
   style="opacity:1;fill:#800000;fill-opacity:1;stroke-width:1;stroke-opacity:0.467863"
   d="m 577.56132,321.69145 c -0.16626,-1.6178 -0.53921,-6.09145 -0.82876,-9.94145 -1.45185,-19.30415 -4.51105,-36.35059 -10.03506,-55.91738 -0.84118,-2.97955 -1.3792,-5.56705 -1.19562,-5.75 0.18359,-0.18294 5.20827,-0.31568 11.16596,-0.29497 11.91587,0.0414 15.53439,0.5428 23.72735,3.28769 10.41577,3.48961 22.13447,10.3643 30.46819,17.87397 0.19985,0.18009 -11.64333,12.33257 -26.3182,27.00552 l -26.68157,26.67807 z"
   id="path100" /></svg>
